<?xml version="1.0" encoding="utf-8" ?>
<svg xmlns="http://www.w3.org/2000/svg" xmlns:xlink="http://www.w3.org/1999/xlink" width="319" height="229">
	<path fill="#077A7E" d="M249.91 195.227C250.948 197.144 250.337 208.858 250.235 211.625L249.875 212.01L248.581 211.961C248.714 211.752 249.049 211.347 249.114 211.125C249.315 210.444 248.781 207.946 248.737 207.114C248.591 204.371 248.729 201.677 248.932 198.941C249.001 198.012 248.889 197.059 249.052 196.142C249.145 195.615 249.492 195.515 249.91 195.227Z"/>
	<path fill="#077A7E" d="M301.815 191.458C302.879 190.734 304.906 190.983 306.179 190.994C306.233 193.93 306.694 210.915 305.75 211.984L304.291 211.964C305.091 210.693 304.845 207.483 304.709 205.94C304.618 204.909 304.41 201.202 303.87 200.75C303.61 199.544 303.257 198.27 303.157 197.045C303.054 195.785 303.177 194.507 303.079 193.25C303.005 192.295 302.493 192.046 301.815 191.458Z"/>
	<defs>
		<linearGradient id="gradient_0" gradientUnits="userSpaceOnUse" x1="261.92099" y1="201.46387" x2="258.6337" y2="201.23846">
			<stop offset="0" stop-color="#13805E"/>
			<stop offset="1" stop-color="#0A7670"/>
		</linearGradient>
	</defs>
	<path fill="url(#gradient_0)" d="M257.663 191.015L262.591 190.966C262.79 194.184 263.31 209.904 262.146 211.979L258.357 212.008L257.873 195C257.817 193.653 258.23 192.29 257.663 191.015Z"/>
	<path fill="#067258" d="M246.172 211.964C245.728 211.322 245.948 209.264 245.927 208.409C245.817 204.006 245.535 199.391 246.096 195.019L239.777 195.02L239.6 191.095L256.529 190.907L256.524 194.877C256.181 195.119 255.421 195.008 254.999 195.006C253.36 194.996 251.497 194.788 249.91 195.227C249.492 195.515 249.145 195.615 249.052 196.142C248.889 197.059 249.001 198.012 248.932 198.941C248.729 201.677 248.591 204.371 248.737 207.114C248.781 207.946 249.315 210.444 249.114 211.125C249.049 211.347 248.714 211.752 248.581 211.961L246.172 211.964Z"/>
	<path fill="#2EAD48" d="M217.825 42.4376L217.983 42.4163L218.219 42.75C217.735 44.396 217.118 45.8629 216.349 47.3952C218.617 47.1204 221.04 47.3545 223.331 47.3158L222.817 52.9948L214.688 52.9466C213.404 52.9568 207.255 53.2977 206.531 52.872L211.75 42.4708L217.825 42.4376Z"/>
	<path fill="#2EAD48" d="M233.628 30.3611L241.097 30.5145L245.912 38.6063L238.224 38.575C236.915 38.5701 235.37 38.3862 234.125 38.7767L233.727 40.3634C234.388 41.1541 234.615 42.3902 234.901 43.3678L228.954 43.4896C228.65 42.2081 228.391 40.8844 228.01 39.625C227.694 38.5775 227.221 37.6089 227.226 36.4922C227.229 35.7458 227.362 34.828 227.917 34.2948C229.649 32.6293 233.619 33.0339 235.843 33.0902C235.175 32.0588 234.571 31.1706 233.628 30.3611Z"/>
	<path fill="#2EAD48" d="M204.875 57.0267L212.346 56.9499L209.666 62.2367L209.828 62.4086C213.688 61.8681 218.141 62.3396 222.069 62.2907C222.426 63.0385 221.587 67.1862 221.463 68.3377L219.241 68.3856L199.03 68.3921C200.394 64.4664 202.752 60.5976 204.875 57.0267Z"/>
	<path fill="#2EAD48" d="M241.392 42.6263L248.028 42.5127C248.72 43.0824 249.204 44.2356 249.67 45.0099L254.156 52.9725L242.552 52.9782C241.358 52.9852 238.366 52.7057 237.519 53.5C237.606 54.1898 237.636 54.7553 237.493 55.4406L237.455 55.6183C238.193 56.4607 238.246 57.4803 238.594 58.5071L232.784 58.533L232.13 56.0747C231.595 53.9965 230.215 50.1979 231.326 48.3148C231.599 48.1121 232.007 47.7072 232.306 47.5861C233.156 47.2415 234.759 47.3454 235.69 47.3307L243.812 47.3164L242.573 45.5725C242.006 44.7403 241.207 43.6161 241.392 42.6263Z"/>
	<path fill="#067258" d="M227.129 191.072C228.518 190.886 230.055 191.019 231.39 191.436C234.475 192.399 235.62 193.975 237.053 196.738L236.861 196.818C236.4 197.008 233.327 198.229 233.086 198.14C232.981 198.101 232.57 197.534 232.474 197.425C231.837 196.702 230.874 195.507 229.97 195.164C228.771 194.71 226.691 195.071 225.584 195.596C224.516 196.103 224.061 197.121 223.655 198.168C223.04 199.748 223.01 202.843 223.475 204.479L223.518 204.625C223.63 205.029 223.738 205.399 223.978 205.75C224.719 206.834 225.728 207.62 227.03 207.865C228.168 208.078 229.506 207.843 230.424 207.179C231.277 206.562 232.379 205.562 232.55 204.486C233.165 204.3 233.599 204.167 234.239 204.348L237.205 205.051C236.154 207.431 234.811 210.195 232.227 211.234C229.647 212.27 226.394 212.155 223.851 211.073C220.933 209.831 219.996 208.272 218.86 205.498C218.739 205.203 218.632 204.917 218.567 204.603C217.941 201.572 218.28 197.552 220.049 194.968C221.751 192.484 224.302 191.575 227.129 191.072Z"/>
	<path fill="#067258" d="M198.165 191.071L202.229 190.988C202.288 193.708 201.574 205.035 202.851 206.577C203.662 207.558 205.108 207.956 206.33 207.99C207.19 208.015 208.878 207.784 209.493 207.131C209.955 206.642 210.21 206.07 210.342 205.415C210.645 203.917 210.457 202.074 210.454 200.543L210.474 191.205C211.135 190.755 214.131 190.959 215.067 190.932L215.086 195.463C215.081 199.236 215.708 205.331 213.9 208.725C213.213 210.015 211.564 211.062 210.187 211.447C207.306 212.252 203.09 212.185 200.468 210.632C199.405 210.003 198.792 209.261 198.492 208.06C197.58 204.406 197.932 200.285 197.938 196.519C197.941 194.825 197.717 192.694 198.165 191.071Z"/>
	<path fill="#067258" d="M304.291 211.964C303.436 212.095 302.396 211.97 301.521 211.962C298.953 207.463 295.863 203.402 293.667 198.692L293.556 212L289.265 212.072L289.272 190.973L293.559 191.033L301.797 203.895C302.183 201.938 301.853 199.435 301.85 197.423C301.848 195.458 302.151 193.396 301.815 191.458C302.493 192.046 303.005 192.295 303.079 193.25C303.177 194.507 303.054 195.785 303.157 197.045C303.257 198.27 303.61 199.544 303.87 200.75C304.41 201.202 304.618 204.909 304.709 205.94C304.845 207.483 305.091 210.693 304.291 211.964Z"/>
	<path fill="#067258" d="M113.27 191L120.687 190.984C122.298 190.998 123.997 190.916 125.54 191.444C126.22 191.677 126.889 191.897 127.47 192.34C128.986 193.493 129.511 195.032 129.742 196.871C129.946 198.497 129.496 200.171 128.47 201.459C126.838 203.506 124.483 203.672 122.084 203.962L117.497 203.96L117.529 211.993L113.267 212.061L113.27 191ZM117.521 194.976L117.499 200.051C119.54 199.963 122.36 200.065 124.267 199.357C124.902 198.083 124.959 197.218 124.511 195.875C122.846 194.606 119.605 194.981 117.521 194.976Z"/>
	<path fill="#2EAD48" d="M248.752 56.6377L256.499 57.086L263.057 68.3214L241.497 68.599C241.66 69.616 242.153 70.8555 241.803 71.8425L241.744 71.9927C242.548 72.7103 242.635 73.9191 242.838 74.9282L236.695 74.9193C236.013 72.5169 235.294 70.0067 234.828 67.558C234.668 66.7167 234.433 65.8389 234.706 65.0001C234.902 64.3967 235.041 63.7837 235.556 63.3614C237.644 61.6485 249.209 62.1804 252.253 62.4356C251.285 60.6443 250.389 57.851 248.752 56.6377Z"/>
	<path fill="#2EAD48" d="M228.468 8.95599L239.2 27.0612L232.23 27.1658C230.602 25.3399 229.759 22.6498 228.48 20.5591L228.309 20.5428L223.016 32.6826L222.871 32.9939C223.164 33.7373 223.859 33.2711 224.52 33.75L224.136 38.5876L213.411 38.5225L228.468 8.95599Z"/>
	<path fill="#2EAD48" d="M258.064 73.218L265.799 73.2699L273.081 85.5168L256.311 85.5377C252.867 85.5361 249.345 85.4035 245.918 85.7782C245.57 86.7365 246.471 88.5103 246.296 89.7283L246.268 89.9004C246.9 90.4746 247.145 92.2182 247.399 93.0588L241.079 93.2049C240.638 90.681 239.957 88.2226 239.366 85.7319C239.061 84.4476 238.576 82.6028 239.184 81.3542C239.582 80.5348 240.194 79.9594 241.058 79.6751L241.214 79.625C243.204 78.969 245.767 79.2491 247.873 79.2501L258.804 79.2463C259.557 79.2449 261.429 79.4539 262.052 79.123C260.887 77.2782 259.844 74.4554 258.064 73.218Z"/>
	<path fill="#067258" d="M132.617 191.052L140.345 190.997C142.233 190.999 144.151 190.914 145.983 191.462C147.15 191.812 148.517 192.21 149.122 193.35C149.43 193.932 149.824 194.467 149.992 195.114C150.351 196.489 150.383 198.195 149.601 199.43C148.658 200.919 146.948 201.932 145.25 202.269L145.043 202.308L145.036 202.696C145.903 203.005 146.574 203.856 147.138 204.552C149.016 206.868 150.355 209.406 151.84 211.971L146.453 211.999C145.508 211.452 144.973 210.434 144.384 209.546L140.26 203.3L137.016 202.924C137.368 205.923 137.192 209.016 137.092 212.027C135.878 212.021 133.542 212.327 132.628 211.625C132.573 211.324 132.524 211.033 132.528 210.727L132.282 195.597C132.298 194.232 132.085 192.315 132.617 191.052ZM137.016 194.973L136.928 199C139.522 198.927 142.574 199.113 145.064 198.337C145.419 197.341 145.179 196.256 145.05 195.232C142.389 194.884 139.694 194.965 137.016 194.973Z"/>
	<path fill="#2EAD48" d="M267.785 90.5421L275.777 90.5454L283.536 103.945L250.568 103.972C250.63 105.11 250.725 106.208 250.984 107.32C251.174 108.136 251.745 108.96 251.566 109.802L251.535 109.923C252.149 110.651 252.388 111.665 252.685 112.556L245.977 112.673L243.993 104.636C243.669 103.398 243.109 102.046 243.092 100.75C243.082 99.9861 243.365 99.4912 243.886 98.9639C244.546 98.2971 245.667 98.1582 246.568 98.0682C249.355 97.7896 252.384 98.0119 255.193 98.0125L272.723 98.0653C271.058 95.8957 269.906 92.1072 267.785 90.5421Z"/>
	<path fill="#067258" d="M8.37474 191.022L12.9918 190.982L15.6412 203.557L19.661 191.062L24.9984 190.995C25.9413 192.043 27.1957 198.622 27.5282 200.25C27.7003 201.093 27.6488 202.292 28.25 202.937C28.8235 202.449 28.8714 200.759 29.0736 200.001C29.8633 197.042 30.6664 193.95 31.704 191.067L36.2114 190.932C35.9147 193.472 35.0646 196.084 34.4095 198.559L30.8862 212.009L26.0741 212.011C25.1041 209.206 24.354 206.228 23.5934 203.368C23.2684 202.145 23.2161 200.288 22.4193 199.332L21.9902 199.499C20.2135 203.34 19.338 207.947 18.0425 212.005L13.6907 212.02C12.8442 210.844 12.4789 208.149 12.0865 206.698L9.22298 194.875C8.9278 193.534 8.5137 192.42 8.37474 191.022Z"/>
	<path fill="#067258" d="M176.722 191.087C178.45 190.968 180.223 191.021 181.956 191.011C185.065 190.993 188.458 190.695 191.102 192.651C193.31 194.285 194.26 196.303 194.633 198.972C195.195 202.995 194.473 206.418 192.022 209.659C188.296 212.873 181.154 211.968 176.521 211.988L176.368 195.968C176.37 194.809 176.048 191.994 176.722 191.087ZM180.988 194.968L180.952 208.009C183.253 207.986 186.075 208.262 188.192 207.271C189.697 204.687 190.333 201.709 189.57 198.723C189.246 197.458 188.563 196.595 187.704 195.66C185.406 194.922 183.358 194.962 180.988 194.968Z"/>
	<path fill="#067258" d="M83.393 191.049C87.6593 190.956 94.6968 189.988 98.262 192.699C100.592 194.47 101.31 196.585 101.709 199.416C102.263 203.353 101.326 206.55 98.9651 209.689C94.9051 212.817 88.4151 211.968 83.4772 212L83.393 191.049ZM88.0085 194.97C88.3373 197.059 88.2237 199.226 88.2163 201.336C88.2086 203.533 88.3071 205.807 87.9095 207.975C90.0113 207.952 93.4385 208.303 95.2309 207.211C96.6325 204.385 97.2979 201.279 96.2288 198.196C95.8937 197.229 95.35 196.446 94.7457 195.633C92.4302 194.956 90.3831 194.967 88.0085 194.97Z"/>
	<path fill="#067258" d="M161.937 191.085C164.388 190.736 167.262 191.337 169.364 192.642C171.394 193.904 172.737 195.967 173.277 198.273C174.017 201.441 173.641 204.879 171.909 207.647C170.236 210.32 167.91 211.179 164.98 211.848C162.799 212.112 160.294 211.726 158.25 210.969C157.707 210.768 157.275 210.525 156.81 210.18C154.616 208.553 153.581 206.744 153.183 204.039C152.784 201.331 152.676 197.685 154.397 195.379C156.368 192.739 158.732 191.563 161.937 191.085ZM161.995 195.06C160.12 195.814 159.045 196.497 158.229 198.484C157.414 200.472 157.601 203.001 158.425 204.944C158.833 205.904 160.073 207.194 161.048 207.588C162.132 208.026 163.521 208.016 164.65 207.842C165.927 207.465 167.05 206.816 167.693 205.614C168.925 203.308 168.938 200.768 168.173 198.324C167.851 197.297 166.942 196.046 165.963 195.555C164.702 194.924 163.356 194.995 161.995 195.06Z"/>
	<path fill="#067258" d="M273.399 191.124L273.539 191.104C276.836 190.673 280.061 191.201 282.737 193.262C284.572 194.675 285.796 196.957 286.087 199.25C286.459 202.177 286.066 205.764 284.182 208.155C282.418 210.395 280.319 211.412 277.52 211.758L277.324 211.832C275.436 212.407 271.679 211.525 270.039 210.63C267.796 209.406 266.399 207.147 265.709 204.753C264.953 202.126 265.334 197.884 266.729 195.5C268.217 192.958 270.702 191.873 273.399 191.124ZM274.46 195.125C272.848 195.652 271.881 196.116 271.099 197.69C270.142 199.619 270.186 202.466 270.899 204.476C271.37 205.805 272.343 206.951 273.644 207.538C274.496 207.922 275.93 207.922 276.799 207.629C278.308 207.359 279.528 206.396 280.377 205.125C281.377 203.629 281.554 201.011 281.13 199.28C280.726 197.633 279.776 196.502 278.346 195.661C277.109 194.933 275.833 195.002 274.46 195.125Z"/>
	<path fill="#067258" d="M68.4249 191.072C70.9014 190.685 74.0576 191.15 76.2317 192.466C78.0715 193.58 79.7293 195.593 80.2408 197.709C81.0145 200.91 81.1728 204.23 79.3564 207.135C77.7023 209.78 75.7483 211 72.7293 211.682C69.6016 212.174 66.3035 211.993 63.6607 210.083C62.0102 208.89 60.2183 206.396 59.9065 204.348C59.4587 201.405 59.5749 197.62 61.3925 195.153C63.277 192.595 65.2901 191.537 68.4249 191.072ZM69.2474 195.059C67.313 195.706 66.3889 196.408 65.4615 198.273C64.5883 200.03 64.6448 202.502 65.2656 204.332C65.7544 205.772 66.8555 206.94 68.2306 207.58C68.9865 207.933 70.1167 207.936 70.9328 207.896C71.8732 207.66 72.8056 207.517 73.4646 206.75C75.007 204.956 75.6164 202.839 75.4788 200.493C75.3908 198.992 74.6971 197.187 73.5575 196.187C72.1878 194.985 70.9677 194.985 69.2474 195.059Z"/>
	<path fill="#067258" d="M45.9247 191.073C48.4511 190.709 51.5654 191.208 53.7173 192.607C56.2845 194.275 57.4544 196.499 58.1158 199.407C58.7902 202.371 58.076 204.97 56.4735 207.485C54.9538 209.87 52.9225 211.09 50.2313 211.697C47.86 212.093 45.1797 212.071 42.9177 211.158C40.3722 210.131 38.7608 208.146 37.7367 205.643C37.0078 203.86 36.8631 199.189 37.61 197.417C37.9472 196.617 38.2604 195.762 38.7802 195.058C40.6293 192.554 42.9482 191.569 45.9247 191.073ZM46.8842 195.041C45.1165 195.414 44.1288 195.921 43.1388 197.47C42.119 199.064 41.924 201.675 42.3563 203.511C42.6952 204.95 43.9273 206.675 45.2188 207.431C46.2305 208.022 47.6733 208.023 48.7993 207.836C50.5961 207.203 51.7973 205.956 52.6367 204.263C53.4007 202.723 53.2562 200.605 52.6821 199.012C52.1325 197.486 51.2653 196.135 49.7384 195.447C48.9214 195.078 47.7753 195.061 46.8842 195.041Z"/>
	<path fill="#2EAD48" d="M279.121 110.41L287.77 110.494L295.187 123.64L268.964 123.674C264.613 123.674 259.764 123.273 255.481 124.001C255.795 125.551 256.918 128.512 256.643 129.999L256.613 130.131C257.405 131.128 257.463 132.715 257.661 133.944C255.55 133.643 253.231 133.841 251.103 133.883L249.15 125.771C248.802 124.338 248.274 122.854 248.266 121.37C248.26 120.516 248.4 119.624 249.034 119C249.694 118.35 250.934 117.942 251.826 117.796C255.523 117.191 259.608 117.51 263.355 117.509L283.664 117.522C282.451 115.369 281.091 111.88 279.121 110.41Z"/>
	<path fill="#2EAD48" d="M258.825 167.713C258.987 166.267 258.372 164.584 258.081 163.161L254.748 148.359C254.29 146.171 252.978 142.732 254.127 140.625L254.192 140.503C254.874 139.226 256.492 138.4 257.81 137.947C259.756 137.277 262.012 137.49 264.052 137.495L273.039 137.512L295.288 137.519L291.33 131.176L299.28 131.036L306.877 143.544L277.499 143.487L267.942 143.493C265.923 143.496 263.494 143.188 261.625 144.003C260.844 145.148 261.269 146.911 261.519 148.236L267.826 174.958L16.1233 174.89L17.5381 168.086L246.877 168.107L258.403 168.152L258.625 168.177L258.825 167.713Z"/>
	<path fill="#067258" d="M16.1807 76.5759L91.3564 76.625L96.4572 92.2406C97.5752 95.6653 99.0278 99.1962 99.7183 102.726C101.837 98.3644 104.935 94.1575 107.491 90C110.179 85.628 112.695 80.6177 115.914 76.6294L163.615 76.5037C163.766 77.1282 163.131 78.6759 162.949 79.3521L160.976 87.2592L153.369 120.7C152.186 125.809 151.275 131.124 149.673 136.112C150.854 136.42 152.783 136.128 154.053 136.124L167.593 136.008L199.52 76.6292C202.365 76.4976 227.235 76.2556 227.828 76.6966L231.808 94.4838L238.605 125.436L243.83 149.375C244.633 153.094 245.822 156.757 246.168 160.56L216.377 160.624L214.181 147.437L192.438 147.483C192.151 147.425 191.91 147.491 191.625 147.539L185.807 160.445C184.517 160.927 181.947 160.634 180.536 160.633L168.039 160.616L115.321 160.561C116.627 157.343 117.019 153.454 117.843 150.06L124.141 122.719C125.357 117.355 126.228 111.944 127.978 106.717C126.82 107.89 125.91 109.312 124.934 110.643L119.657 117.945L113.86 125.711C112.9 127.025 111.8 128.344 111.063 129.796C109.157 133.551 108.63 138.726 107.754 142.844L106.432 148.151L103.619 160.526L74.2884 160.559C74.8707 156.426 76.1778 152.162 77.1578 148.091L79.3902 138.065L81.4858 129.481C81.6007 128.903 81.9379 127.894 81.8956 127.331C81.8437 126.641 80.951 125.154 80.671 124.445L70.4737 100.108C67.9936 100.554 64.876 100.219 62.331 100.192L48.8879 160.616L19.249 160.513L33.3223 100.103C31.0672 100.454 28.4644 100.187 26.1681 100.188L10.4911 100.176C11.236 96.0224 12.4506 91.8877 13.3916 87.7685L15.0433 80.1994C15.336 78.9975 15.5498 77.6513 16.1807 76.5759ZM19.1376 80.5543L15.3893 96.3057L38.1876 96.2567L34.702 111.957L27.4921 143.75C27.093 145.539 24.4495 155.723 24.7751 156.733L24.9934 156.698C26.8642 156.415 28.8994 156.555 30.7926 156.554L40.874 156.56C42.3318 156.561 44.0273 156.738 45.4449 156.492C46.7191 152.145 47.4971 147.634 48.5394 143.226L55.5334 113.102L57.9 102.927C58.368 100.769 58.6413 98.3661 59.4185 96.3036L73.3437 96.2815L84.5756 122.506C85.0102 123.579 86.2873 125.692 86.2739 126.776C86.2671 127.334 85.9283 128.182 85.8032 128.75L84.8042 133.216L80.2987 152.955C80.0952 153.839 79.2321 156.121 79.875 156.704L80.0412 156.669C82.241 156.232 84.8893 156.547 87.1573 156.553L100.435 156.535L100.447 156.38C100.699 153.541 101.775 150.48 102.407 147.675L105.198 135.397C105.685 133.23 105.936 130.644 106.915 128.649C107.652 127.147 108.894 125.666 109.87 124.301L114.875 117.247L127.321 100.013L135.851 88.1614C135.892 90.3085 135.061 92.5819 134.567 94.6597L131.845 106.32L123.719 142.25C122.61 146.985 121.805 151.879 120.346 156.518L171.869 156.536C173.148 156.536 182.541 156.817 183.107 156.537C183.227 156.478 183.306 156.359 183.405 156.27L183.444 156.115C183.902 154.365 184.965 152.565 185.707 150.906C186.803 148.368 187.929 145.597 189.365 143.248L217.896 143.253L219.91 156.667L241.123 156.559L224.299 80.6594L201.844 80.5626L178.132 124.606L172.042 136.201C171.398 137.399 170.539 139.527 169.502 140.381L144.864 140.385L158.045 80.875C157.799 80.7196 157.72 80.5975 157.421 80.6403C155.691 80.888 153.824 80.7225 152.078 80.7015L143.553 80.6794L127.383 80.6826C124.26 80.6828 121.014 80.8454 117.907 80.5408L98.5206 112.633C97.9798 109.929 96.9365 107.264 96.0806 104.641L91.667 90.5607C90.6217 87.3161 89.2848 84.0659 88.6067 80.722L38.7831 80.6533L25.6799 80.6526C23.5699 80.6527 21.2084 80.8772 19.1376 80.5543Z"/>
	<path fill="#067258" d="M210.436 98.9389C211.373 99.8853 214.986 124.709 215.57 127.795L201.737 127.762L196.627 127.929L210.436 98.9389ZM208.87 111.941L203.509 123.625L203.75 123.951L204.963 123.823L210.471 123.787L208.87 111.941Z"/>
</svg>
